#!OML:ASF H:\MichaelJackson\Top Level 1\Subject 1\Session 1\male.ASF
:FULLY-SPECIFIED
:DEGREES
50
root 11.9656 16.6191 -31.4395 11.3482 -17.0088 -1.34029
lowerback -0.445868 0.550778 1.18233
upperback 0.185178 0.72572 0.246207
thorax 0.450807 0.36578 -0.404478
lowerneck -8.77302 0.107764 -0.44945
upperneck 4.56249 0.106215 1.33211
head 3.0023 0.0960379 0.517155
rclavicle -3.33539e-014 -2.4786e-015
rhumerus -37.3895 10.5336 -91.2048
rradius 42.3971
rwrist 9.43092
rhand -25.2593 -25.5993
rfingers 7.12502
rthumb 1.26114 -55.5754
lclavicle -3.33539e-014 -2.4786e-015
lhumerus -41.9199 -4.77835 93.6984
lradius 44.1665
lwrist 22.3028
lhand -5.90775 24.7773
lfingers 7.12502
lthumb 19.921 53.7763
rfemur -14.9509 4.63203 22.5285
rtibia 32.0748
rfoot -28.0246 -26.3417
rtoes 14.618
lfemur -40.5264 11.1055 -23.8584
ltibia 47.1886
lfoot -16.6252 -1.02903
ltoes 11.8798
51
root 11.9202 16.6166 -31.3933 11.387 -17.0646 -1.38568
lowerback -0.453316 0.634213 1.29255
upperback 0.16055 0.836198 0.281319
thorax 0.432594 0.421053 -0.429397
lowerneck -8.72386 0.107973 -0.381862
upperneck 4.43985 0.106307 1.23447
head 2.95061 0.0930932 0.472808
rclavicle -2.69912e-014 -8.22472e-015
rhumerus -37.1922 10.664 -91.1277
rradius 42.4286
rwrist 9.33498
rhand -25.2448 -25.6845
rfingers 7.12502
rthumb 1.27516 -55.6604
lclavicle -2.69912e-014 -8.22472e-015
lhumerus -41.9952 -4.96293 93.8915
lradius 44.2806
lwrist 22.1945
lhand -5.65983 23.8621
lfingers 7.12502
lthumb 20.1593 52.8361
rfemur -14.6964 4.2604 22.7095
rtibia 31.89
rfoot -27.7998 -26.2469
rtoes 13.9681
lfemur -40.9543 10.9131 -24.3177
ltibia 46.804
lfoot -16.2454 -1.15102
ltoes 12.04
52
root 11.8751 16.612 -31.3456 11.4339 -17.1411 -1.43592
lowerback -0.47028 0.725232 1.3882
upperback 0.136347 0.956708 0.31921
thorax 0.42032 0.481302 -0.443088
lowerneck -8.68076 0.10606 -0.310615
upperneck 4.31521 0.103744 1.12612
head 2.89953 0.0885357 0.424358
rclavicle 8.567e-014 1.4064e-014
rhumerus -36.9856 10.7899 -91.0511
rradius 42.5067
rwrist 9.1809
rhand -25.0817 -25.909
rfingers 7.12502
rthumb 1.43264 -55.8839
lclavicle 8.567e-014 1.4064e-014
lhumerus -42.0633 -5.12496 94.0762
lradius 44.3729
lwrist 22.0573
lhand -5.32963 22.8416
lfingers 7.12502
lthumb 20.4767 51.7818
rfemur -14.4532 3.88199 22.8862
rtibia 31.7214
rfoot -27.5838 -26.1319
rtoes 13.2777
lfemur -41.3468 10.6668 -24.7077
ltibia 46.3982
lfoot -15.9332 -1.31582
ltoes 12.5074
53
root 11.8296 16.6062 -31.2963 11.485 -17.2365 -1.48883
lowerback -0.493409 0.82186 1.46216
upperback 0.113416 1.08469 0.3596
thorax 0.412718 0.54524 -0.441874
lowerneck -8.63423 0.103808 -0.246956
upperneck 4.18089 0.101088 1.02464
head 2.84465 0.084061 0.37956
rclavicle -1.9543e-014 7.8023e-015
rhumerus -36.7739 10.9171 -90.9788
rradius 42.5808
rwrist 9.09501
rhand -24.9248 -26.0683
rfingers 7.12502
rthumb 1.5842 -56.0421
lclavicle -1.9543e-014 7.8023e-015
lhumerus -42.122 -5.25793 94.2512
lradius 44.4466
lwrist 21.9318
lhand -4.95907 21.7818
lfingers 7.12502
lthumb 20.8327 50.6833
rfemur -14.217 3.51854 23.0592
rtibia 31.5726
rfoot -27.4059 -26.0035
rtoes 12.627
lfemur -41.7077 10.3671 -25.0278
ltibia 45.9785
lfoot -15.7063 -1.49679
ltoes 13.1785
54
root 11.7837 16.5989 -31.2455 11.541 -17.3476 -1.5409
lowerback -0.524131 0.921673 1.50937
upperback 0.0898841 1.21692 0.400768
thorax 0.408396 0.611251 -0.424653
lowerneck -8.59732 0.10086 -0.17627
upperneck 4.05453 0.0968374 0.917617
head 2.79446 0.0787943 0.331865
rclavicle -2.76186e-014 -2.0773e-014
rhumerus -36.5571 11.0508 -90.9161
rradius 42.6608
rwrist 9.05201
rhand -24.7207 -26.2519
rfingers 7.12502
rthumb 1.78132 -56.2242
lclavicle -2.76186e-014 -2.0773e-014
lhumerus -42.1872 -5.36607 94.4171
lradius 44.5305
lwrist 21.8613
lhand -4.6845 20.898
lfingers 7.12502
lthumb 21.0965 49.7704
rfemur -13.9887 3.16447 23.2263
rtibia 31.444
rfoot -27.2977 -25.8417
rtoes 12.1046
lfemur -42.0425 10.0297 -25.2866
ltibia 45.5484
lfoot -15.5588 -1.70201
ltoes 13.9829
55
root 11.737 16.5905 -31.1926 11.5917 -17.4801 -1.59309
lowerback -0.556645 1.02632 1.53276
upperback 0.0696178 1.35568 0.439986
thorax 0.408049 0.680508 -0.395878
lowerneck -8.51461 0.0995647 -0.144628
upperneck 3.88488 0.0961362 0.863381
head 2.72114 0.076397 0.308082
rclavicle 6.38596e-015 1.56046e-014
rhumerus -36.3275 11.1862 -90.8658
rradius 42.7257
rwrist 9.07077
rhand -24.5303 -26.3831
rfingers 7.12502
rthumb 1.96516 -56.3538
lclavicle 6.38596e-015 1.56046e-014
lhumerus -42.257 -5.45703 94.5736
lradius 44.6271
lwrist 21.8674
lhand -4.48526 20.2386
lfingers 7.12502
lthumb 21.2879 49.0894
rfemur -13.7486 2.82908 23.388
rtibia 31.3226
rfoot -27.2449 -25.6577
rtoes 11.6802
lfemur -42.3447 9.67584 -25.4887
ltibia 45.1111
lfoot -15.4548 -1.92621
ltoes 15.0025
56
root 11.6894 16.5818 -31.1377 11.6367 -17.638 -1.64293
lowerback -0.590906 1.13568 1.52912
upperback 0.0513939 1.50088 0.474916
thorax 0.410218 0.752961 -0.35614
lowerneck -8.42513 0.0991097 -0.114986
upperneck 3.71014 0.095889 0.823194
head 2.64508 0.0747016 0.28926
rclavicle -4.56708e-014 -1.03368e-014
rhumerus -36.087 11.3285 -90.8341
rradius 42.7757
rwrist 9.1516
rhand -24.3384 -26.5154
rfingers 7.12502
rthumb 2.1505 -56.4843
lclavicle -4.56708e-014 -1.03368e-014
lhumerus -42.3298 -5.52958 94.7164
lradius 44.7324
lwrist 21.9434
lhand -4.39185 19.8693
lfingers 7.12502
lthumb 21.3776 48.7101
rfemur -13.4886 2.51252 23.5409
rtibia 31.1928
rfoot -27.2306 -25.4538
rtoes 11.3361
lfemur -42.6238 9.32978 -25.6472
ltibia 44.6675
lfoot -15.3931 -2.17309
ltoes 15.98
57
root 11.6407 16.5733 -31.0808 11.6864 -17.8082 -1.69164
lowerback -0.631004 1.24464 1.50403
upperback 0.0302169 1.64565 0.504535
thorax 0.411974 0.825156 -0.309639
lowerneck -8.33267 0.101656 -0.0823853
upperneck 3.53476 0.0986366 0.794235
head 2.56848 0.0749402 0.273742
rclavicle -1.73937e-014 -1.0138e-014
rhumerus -35.8358 11.4783 -90.828
rradius 42.8022
rwrist 9.27647
rhand -24.2038 -26.5852
rfingers 7.12502
rthumb 2.28057 -56.5528
lclavicle -1.73937e-014 -1.0138e-014
lhumerus -42.4037 -5.58728 94.8418
lradius 44.8393
lwrist 22.0753
lhand -4.42615 19.7552
lfingers 7.12502
lthumb 21.3447 48.5996
rfemur -13.2128 2.19596 23.6879
rtibia 31.0378
rfoot -27.2215 -25.2383
rtoes 10.9858
lfemur -42.906 8.99869 -25.7725
ltibia 44.2151
lfoot -15.3261 -2.44734
ltoes 16.7698
58
root 11.591 16.5661 -31.0219 11.7433 -17.9955 -1.74047
lowerback -0.679579 1.35426 1.4634
upperback 0.00574561 1.79138 0.526293
thorax 0.414613 0.89781 -0.262192
lowerneck -8.23553 0.108516 -0.0447769
upperneck 3.35617 0.106097 0.77491
head 2.49018 0.0779025 0.260704
rclavicle -8.63719e-014 3.0911e-014
rhumerus -35.5777 11.6378 -90.854
rradius 42.7906
rwrist 9.48954
rhand -24.1906 -26.5452
rfingers 7.12502
rthumb 2.29328 -56.5126
lclavicle -8.63719e-014 3.0911e-014
lhumerus -42.4752 -5.62882 94.9447
lradius 44.9363
lwrist 22.2325
lhand -4.55141 19.8836
lfingers 7.12502
lthumb 21.2244 48.7416
rfemur -12.9175 1.86952 23.8267
rtibia 30.8422
rfoot -27.2031 -24.9974
rtoes 10.6105
lfemur -43.202 8.69689 -25.8712
ltibia 43.751
lfoot -15.2095 -2.75946
ltoes 17.4422
59
root 11.5404 16.5602 -30.9609 11.8167 -18.1866 -1.79096
lowerback -0.739439 1.4604 1.41549
upperback -0.0262263 1.93247 0.540073
thorax 0.415543 0.96812 -0.21856
lowerneck -8.13825 0.121631 -0.00156801
upperneck 3.17736 0.120913 0.76406
head 2.41202 0.0848569 0.249783
rclavicle 2.70099e-014 6.4605e-015
rhumerus -35.3027 11.7933 -90.9081
rradius 42.7797
rwrist 9.63161
rhand -24.1682 -26.5438
rfingers 7.12502
rthumb 2.31491 -56.511
lclavicle 2.70099e-014 6.4605e-015
lhumerus -42.5362 -5.65009 95.0196
lradius 45.0057
lwrist 22.3758
lhand -4.72031 20.0581
lfingers 7.12502
lthumb 21.0621 48.9343
rfemur -12.6038 1.51582 23.9588
rtibia 30.586
rfoot -27.1704 -24.7123
rtoes 10.2679
lfemur -43.5266 8.41356 -25.9422
ltibia 43.2698
lfoot -15.0249 -3.10461
ltoes 17.9844
60
root 11.4891 16.5555 -30.8978 11.9085 -18.3864 -1.8489
lowerback -0.808772 1.56495 1.36935
upperback -0.0656756 2.07143 0.546745
thorax 0.414116 1.03736 -0.182895
lowerneck -8.04235 0.142123 0.0477221
upperneck 2.99856 0.144845 0.756887
head 2.33435 0.0965076 0.239412
rclavicle -4.05272e-014 6.06293e-015
rhumerus -35.0213 11.943 -90.9911
rradius 42.7572
rwrist 9.74003
rhand -24.2316 -26.512
rfingers 7.12502
rthumb 2.25372 -56.4799
lclavicle -4.05272e-014 6.06293e-015
lhumerus -42.5862 -5.65056 95.0687
lradius 45.0443
lwrist 22.4825
lhand -4.93106 20.125
lfingers 7.12502
lthumb 20.8596 49.0236
rfemur -12.2702 1.11981 24.0867
rtibia 30.2636
rfoot -27.1121 -24.368
rtoes 9.91336
lfemur -43.8831 8.15287 -25.9816
ltibia 42.7667
lfoot -14.7618 -3.48149
ltoes 18.3529
